<?xml version="1.0" standalone="no"?>
<!DOCTYPE svg PUBLIC "-//W3C//DTD SVG 20010904//EN"
 "http://www.w3.org/TR/2001/REC-SVG-20010904/DTD/svg10.dtd">
<svg version="1.0" xmlns="http://www.w3.org/2000/svg"
 width="512.000000pt" height="512.000000pt" viewBox="0 0 512.000000 512.000000"
 preserveAspectRatio="xMidYMid meet">
<metadata>
Created by potrace 1.14, written by Peter Selinger 2001-2017
</metadata>
<g transform="translate(0.000000,512.000000) scale(0.100000,-0.100000)"
fill="#000000" stroke="none">
<path d="M2103 5109 c-18 -5 -50 -27 -72 -49 -76 -77 -78 -199 -4 -275 51 -52
83 -62 213 -64 63 -1 117 -4 120 -7 10 -10 5 -394 -5 -395 -44 -3 -210 -31
-250 -41 -22 -5 -48 -12 -57 -13 -30 -6 -171 -47 -197 -57 -14 -6 -35 -14 -46
-18 -255 -99 -493 -242 -676 -407 -271 -244 -470 -535 -593 -866 -32 -84 -81
-251 -90 -305 -6 -34 -26 -148 -31 -182 -11 -61 -13 -402 -4 -490 38 -375 185
-753 412 -1060 349 -472 846 -767 1452 -861 154 -24 570 -15 673 15 9 3 34 7
56 11 21 3 41 7 45 10 4 2 18 6 32 9 103 21 285 85 415 147 521 247 937 717
1119 1265 28 83 70 248 80 314 4 25 9 52 10 60 25 143 25 502 0 625 -3 11 -7
36 -9 55 -9 59 -26 143 -36 175 -5 16 -20 66 -34 110 -57 189 -146 373 -268
553 -43 65 -89 131 -103 148 l-25 31 109 109 c119 119 142 155 147 223 9 133
-123 237 -254 201 -32 -8 -69 -38 -164 -130 l-123 -119 -30 24 c-298 239 -694
409 -1055 451 -30 4 -62 8 -70 10 -8 1 -17 3 -20 3 -4 1 -6 91 -6 201 l0 200
113 0 c128 0 168 11 221 63 19 18 39 52 47 80 29 99 -10 189 -104 237 -37 18
-61 19 -472 19 -242 0 -448 -5 -466 -10z m703 -1198 c106 -15 107 -15 219 -45
538 -143 986 -550 1187 -1077 35 -91 70 -215 83 -289 3 -19 8 -42 10 -50 19
-69 26 -343 13 -475 -18 -175 -80 -394 -157 -556 -38 -80 -87 -172 -103 -194
-5 -5 -32 -44 -62 -86 -247 -351 -634 -606 -1061 -698 -143 -31 -144 -32 -335
-36 -279 -5 -487 34 -740 143 -322 137 -635 413 -811 714 -176 301 -250 586
-244 933 3 155 8 224 20 265 2 8 7 31 10 50 3 19 13 62 21 95 125 491 476 919
939 1145 92 45 298 120 370 134 63 12 92 17 135 22 25 3 61 9 80 13 53 11 335
6 426 -8z"/>
<path d="M3266 3129 c-47 -23 -836 -806 -871 -864 -49 -82 -38 -173 29 -240
67 -66 160 -79 239 -31 23 14 227 211 453 438 371 373 412 417 423 459 22 78
1 147 -61 205 -55 52 -145 66 -212 33z"/>
</g>
</svg>
